<svg width="35" height="34" viewBox="0 0 35 34" fill="none" xmlns="http://www.w3.org/2000/svg">
<rect x="0.455078" width="34.3643" height="34" rx="17" fill="white"/>
<path d="M17.6375 6.95459C15.6294 6.95459 13.6664 7.54375 11.9967 8.64755C10.327 9.75136 9.0257 11.3202 8.25724 13.1558C7.48877 14.9914 7.28771 17.0112 7.67947 18.9598C8.07123 20.9084 9.03821 22.6984 10.4581 24.1033C11.8781 25.5081 13.6872 26.4649 15.6567 26.8525C17.6262 27.2401 19.6676 27.0412 21.5229 26.2808C23.3781 25.5205 24.9638 24.233 26.0794 22.581C27.1951 20.929 27.7905 18.9868 27.7905 17C27.7877 14.3367 26.7171 11.7832 24.8136 9.89994C22.9102 8.01666 20.3294 6.9574 17.6375 6.95459ZM18.4185 25.4643V19.3182H20.7615C20.9686 19.3182 21.1673 19.2368 21.3137 19.0919C21.4602 18.947 21.5425 18.7504 21.5425 18.5455C21.5425 18.3406 21.4602 18.144 21.3137 17.9991C21.1673 17.8542 20.9686 17.7728 20.7615 17.7728H18.4185V15.4546C18.4185 15.0447 18.583 14.6516 18.876 14.3618C19.1689 14.072 19.5662 13.9091 19.9805 13.9091H21.5425C21.7496 13.9091 21.9483 13.8277 22.0948 13.6828C22.2412 13.5379 22.3235 13.3413 22.3235 13.1364C22.3235 12.9315 22.2412 12.7349 22.0948 12.59C21.9483 12.4451 21.7496 12.3637 21.5425 12.3637H19.9805C19.1519 12.3637 18.3573 12.6893 17.7715 13.269C17.1856 13.8486 16.8565 14.6348 16.8565 15.4546V17.7728H14.5134C14.3063 17.7728 14.1077 17.8542 13.9612 17.9991C13.8147 18.144 13.7324 18.3406 13.7324 18.5455C13.7324 18.7504 13.8147 18.947 13.9612 19.0919C14.1077 19.2368 14.3063 19.3182 14.5134 19.3182H16.8565V25.4643C14.6548 25.2655 12.6154 24.2345 11.1624 22.5859C9.70938 20.9372 8.95469 18.7979 9.05529 16.6127C9.15589 14.4276 10.104 12.365 11.7025 10.8539C13.3009 9.34276 15.4266 8.4995 17.6375 8.4995C19.8483 8.4995 21.974 9.34276 23.5725 10.8539C25.1709 12.365 26.119 14.4276 26.2196 16.6127C26.3202 18.7979 25.5655 20.9372 24.1126 22.5859C22.6596 24.2345 20.6201 25.2655 18.4185 25.4643Z" fill="#133AA5"/>
</svg>
