<svg width="35" height="34" viewBox="0 0 35 34" fill="none" xmlns="http://www.w3.org/2000/svg">
<rect width="34.3643" height="34" rx="17" fill="white"/>
<path d="M24.0409 23.3719L19.2752 15.8875L23.9409 10.7555C24.1046 10.5709 24.1889 10.3293 24.1757 10.083C24.1624 9.83662 24.0526 9.60543 23.8701 9.43952C23.6875 9.27361 23.4469 9.18634 23.2004 9.19664C22.9539 9.20693 22.7214 9.31397 22.5534 9.49453L18.2354 14.2477L15.2909 9.62188C15.2062 9.48883 15.0894 9.37927 14.9512 9.30334C14.813 9.22742 14.6579 9.18757 14.5002 9.1875H10.7502C10.5823 9.18758 10.4175 9.23276 10.273 9.31834C10.1285 9.40391 10.0096 9.52673 9.9288 9.67395C9.848 9.82118 9.80824 9.9874 9.81366 10.1553C9.81908 10.3231 9.86948 10.4864 9.95961 10.6281L14.7252 18.1125L10.0565 23.2445C9.97195 23.3353 9.90629 23.442 9.86329 23.5584C9.82029 23.6748 9.80081 23.7985 9.80599 23.9225C9.81117 24.0464 9.8409 24.1681 9.89346 24.2805C9.94601 24.3929 10.0204 24.4937 10.1122 24.5771C10.204 24.6606 10.3114 24.7249 10.4283 24.7665C10.5452 24.8081 10.6692 24.8261 10.793 24.8195C10.9169 24.8128 11.0382 24.7816 11.15 24.7277C11.2617 24.6738 11.3617 24.5983 11.444 24.5055L15.7651 19.7523L18.7096 24.3781C18.7942 24.5112 18.911 24.6207 19.0492 24.6967C19.1874 24.7726 19.3426 24.8124 19.5002 24.8125H23.2502C23.4182 24.8124 23.583 24.7672 23.7275 24.6817C23.872 24.5961 23.9909 24.4733 24.0717 24.326C24.1525 24.1788 24.1922 24.0126 24.1868 23.8447C24.1814 23.6769 24.131 23.5136 24.0409 23.3719ZM20.0151 22.9375L12.458 11.0625H13.9854L21.5424 22.9375H20.0151Z" fill="#133AA5"/>
</svg>
