<svg width="15" height="25" viewBox="0 0 15 25" fill="none" xmlns="http://www.w3.org/2000/svg">
<path d="M12.2311 0.771973H3.17065C2.05867 0.771973 1.15723 1.67342 1.15723 2.7854V21.913C1.15723 23.025 2.05867 23.9264 3.17065 23.9264H12.2311C13.3431 23.9264 14.2445 23.025 14.2445 21.913V2.7854C14.2445 1.67342 13.3431 0.771973 12.2311 0.771973Z" stroke="#A0A3BD" stroke-width="1.42489" stroke-linecap="round" stroke-linejoin="round"/>
<path d="M10.9989 0.771973V2.09109C10.9989 2.44094 10.8599 2.77646 10.6125 3.02384C10.3652 3.27123 10.0296 3.4102 9.67978 3.4102H5.72244C5.37258 3.4102 5.03706 3.27123 4.78968 3.02384C4.5423 2.77646 4.40332 2.44094 4.40332 2.09109V0.771973" stroke="#A0A3BD" stroke-width="1.42489" stroke-linecap="round" stroke-linejoin="round"/>
</svg>
