<svg width="35" height="34" viewBox="0 0 35 34" fill="none" xmlns="http://www.w3.org/2000/svg">
<rect x="0.54541" width="34.3643" height="34" rx="17" fill="#014364"/>
<path d="M17.7278 12.3637C16.801 12.3637 15.895 12.6356 15.1244 13.145C14.3538 13.6545 13.7531 14.3786 13.3985 15.2258C13.0438 16.073 12.951 17.0052 13.1318 17.9046C13.3126 18.8039 13.7589 19.63 14.4143 20.2785C15.0696 20.9269 15.9046 21.3684 16.8136 21.5473C17.7226 21.7262 18.6648 21.6344 19.5211 21.2835C20.3773 20.9326 21.1092 20.3383 21.6241 19.5759C22.139 18.8134 22.4138 17.917 22.4138 17C22.4125 15.7708 21.9184 14.5923 21.0399 13.7231C20.1614 12.8538 18.9702 12.365 17.7278 12.3637ZM17.7278 20.091C17.1099 20.091 16.5059 19.9097 15.9922 19.57C15.4784 19.2304 15.078 18.7477 14.8416 18.1829C14.6051 17.6181 14.5433 16.9966 14.6638 16.397C14.7843 15.7975 15.0819 15.2467 15.5188 14.8144C15.9557 14.3822 16.5123 14.0878 17.1183 13.9685C17.7243 13.8493 18.3525 13.9105 18.9233 14.1444C19.4941 14.3784 19.9821 14.7745 20.3253 15.2828C20.6686 15.7911 20.8518 16.3887 20.8518 17C20.8518 17.8198 20.5227 18.606 19.9368 19.1856C19.3509 19.7653 18.5563 20.091 17.7278 20.091ZM22.4138 6.95459H13.0418C11.5923 6.95612 10.2026 7.5265 9.17768 8.54057C8.15275 9.55464 7.57626 10.9296 7.57471 12.3637V21.6364C7.57626 23.0705 8.15275 24.4455 9.17768 25.4595C10.2026 26.4736 11.5923 27.044 13.0418 27.0455H22.4138C23.8633 27.044 25.253 26.4736 26.2779 25.4595C27.3028 24.4455 27.8793 23.0705 27.8809 21.6364V12.3637C27.8793 10.9296 27.3028 9.55464 26.2779 8.54057C25.253 7.5265 23.8633 6.95612 22.4138 6.95459ZM26.3189 21.6364C26.3189 22.6611 25.9074 23.6438 25.1751 24.3684C24.4428 25.093 23.4495 25.5 22.4138 25.5H13.0418C12.0061 25.5 11.0128 25.093 10.2805 24.3684C9.54814 23.6438 9.13672 22.6611 9.13672 21.6364V12.3637C9.13672 11.339 9.54814 10.3562 10.2805 9.63168C11.0128 8.9071 12.0061 8.50004 13.0418 8.50004H22.4138C23.4495 8.50004 24.4428 8.9071 25.1751 9.63168C25.9074 10.3562 26.3189 11.339 26.3189 12.3637V21.6364ZM23.9758 11.9773C23.9758 12.2066 23.9071 12.4307 23.7784 12.6213C23.6497 12.8119 23.4667 12.9604 23.2527 13.0482C23.0386 13.1359 22.803 13.1589 22.5758 13.1141C22.3485 13.0694 22.1398 12.959 21.976 12.7969C21.8121 12.6348 21.7005 12.4283 21.6553 12.2034C21.6101 11.9786 21.6333 11.7455 21.722 11.5338C21.8107 11.322 21.9608 11.1409 22.1535 11.0136C22.3461 10.8862 22.5726 10.8182 22.8043 10.8182C23.115 10.8182 23.413 10.9403 23.6327 11.1577C23.8524 11.3751 23.9758 11.6699 23.9758 11.9773Z" fill="white"/>
</svg>
