<svg width="35" height="34" viewBox="0 0 35 34" fill="none" xmlns="http://www.w3.org/2000/svg">
<rect width="34.3643" height="34" rx="17" fill="#014364"/>
<path d="M25.0409 24.3719L20.2752 16.8875L24.9409 11.7555C25.1046 11.5709 25.1889 11.3293 25.1757 11.083C25.1624 10.8366 25.0526 10.6054 24.8701 10.4395C24.6875 10.2736 24.4469 10.1863 24.2004 10.1966C23.9539 10.2069 23.7214 10.314 23.5534 10.4945L19.2354 15.2477L16.2909 10.6219C16.2062 10.4888 16.0894 10.3793 15.9512 10.3033C15.813 10.2274 15.6579 10.1876 15.5002 10.1875H11.7502C11.5823 10.1876 11.4175 10.2328 11.273 10.3183C11.1285 10.4039 11.0096 10.5267 10.9288 10.674C10.848 10.8212 10.8082 10.9874 10.8137 11.1553C10.8191 11.3231 10.8695 11.4864 10.9596 11.6281L15.7252 19.1125L11.0565 24.2445C10.972 24.3353 10.9063 24.442 10.8633 24.5584C10.8203 24.6748 10.8008 24.7985 10.806 24.9225C10.8112 25.0464 10.8409 25.1681 10.8935 25.2805C10.946 25.3929 11.0204 25.4937 11.1122 25.5771C11.204 25.6606 11.3114 25.7249 11.4283 25.7665C11.5452 25.8081 11.6692 25.8261 11.793 25.8195C11.9169 25.8128 12.0382 25.7816 12.15 25.7277C12.2617 25.6738 12.3617 25.5983 12.444 25.5055L16.7651 20.7523L19.7096 25.3781C19.7942 25.5112 19.911 25.6207 20.0492 25.6967C20.1874 25.7726 20.3426 25.8124 20.5002 25.8125H24.2502C24.4182 25.8124 24.583 25.7672 24.7275 25.6817C24.872 25.5961 24.9909 25.4733 25.0717 25.326C25.1525 25.1788 25.1922 25.0126 25.1868 24.8447C25.1814 24.6769 25.131 24.5136 25.0409 24.3719ZM21.0151 23.9375L13.458 12.0625H14.9854L22.5424 23.9375H21.0151Z" fill="white"/>
</svg>
